#!OML:ASF I:\Actors\actors\Patient Classification 2\Patient 1\Session 1\actor1.ASF
:FULLY-SPECIFIED
:DEGREES
582
root -0.693373 18.7368 5.48571 3.44961 -1.29239 -3.02685
lowerback 4.95723 1.29573 -2.54618
upperback -0.764909 1.51883 -1.41191
thorax -3.59786 0.791983 -0.149772
lowerneck -11.6376 -0.0936084 -2.11004
upperneck 29.5554 0.438172 -0.0533104
head 11.5347 -0.0422911 0.403755
rclavicle -2.28602e-015 3.26007e-014
rhumerus -40.8356 12.4101 -84.0317
rradius 90.6722
rwrist -20.7725
rhand -12.5243 -50.845
rfingers 7.12502
rthumb 13.5517 -80.384
lclavicle -2.28602e-015 3.26007e-014
lhumerus -17.022 -22.5082 76.2937
lradius 77.3441
lwrist 29.585
lhand -6.15009 -16.7431
lfingers 7.12502
lthumb 19.6881 12.2798
rfemur 0 0 0
rtibia 0
rfoot 0 0
rtoes 0
lfemur -6.97678 -8.43513 -11.008
ltibia 22.1752
lfoot -24.7784 16.8036
ltoes -53.967
583
root -0.689434 18.7311 5.50921 3.29602 -1.43064 -2.98497
lowerback 4.78118 1.23425 -2.38378
upperback -0.822359 1.457 -1.26997
thorax -3.55633 0.759618 -0.0859987
lowerneck -11.6342 -0.172831 -2.30446
upperneck 29.1818 0.301215 0.151996
head 11.3896 -0.0974363 0.493909
rclavicle -7.40473e-015 9.54166e-015
rhumerus -41.3823 11.5965 -83.8945
rradius 88.3091
rwrist -18.9111
rhand -11.5242 -51.7382
rfingers 7.12502
rthumb 14.5155 -81.2104
lclavicle -7.40473e-015 9.54166e-015
lhumerus -18.8716 -21.7277 76.9862
lradius 76.9858
lwrist 29.2438
lhand -6.48402 -16.1915
lfingers 7.12502
lthumb 19.367 12.8641
rfemur 0 0 0
rtibia 0
rfoot 0 0
rtoes 0
lfemur -6.65441 -8.37215 -11.1165
ltibia 22.1217
lfoot -24.8533 16.8107
ltoes -53.8822
584
root -0.687649 18.7273 5.53378 3.23203 -1.63391 -3.03389
lowerback 4.54113 1.18321 -2.1671
upperback -0.908541 1.41448 -1.08442
thorax -3.50848 0.736343 -0.00856504
lowerneck -11.6169 -0.259763 -2.43956
upperneck 28.785 0.16871 0.25806
head 11.2348 -0.156163 0.537481
rclavicle -2.5842e-015 3.97569e-015
rhumerus -41.9189 10.8116 -83.7965
rradius 85.8939
rwrist -16.9005
rhand -10.937 -51.0809
rfingers 7.12502
rthumb 15.0811 -80.5116
lclavicle -2.5842e-015 3.97569e-015
lhumerus -20.7067 -20.9263 77.7219
lradius 76.4334
lwrist 28.9594
lhand -6.80072 -15.9395
lfingers 7.12502
lthumb 19.0625 13.1463
rfemur 0 0 0
rtibia 0
rfoot 0 0
rtoes 0
lfemur -6.39875 -8.30045 -11.1131
ltibia 22.052
lfoot -24.9311 16.8831
ltoes -53.8412
585
root -0.687198 18.7247 5.5586 3.23723 -1.8811 -3.00955
lowerback 4.22066 1.17122 -2.03575
upperback -1.00639 1.41887 -0.935581
thorax -3.42939 0.737626 0.0765878
lowerneck -11.5886 -0.362139 -2.4675
upperneck 28.3557 0.0121365 0.285598
head 11.0674 -0.223541 0.530743
rclavicle 2.98177e-016 7.95139e-016
rhumerus -42.3915 9.92168 -83.7085
rradius 83.4335
rwrist -14.969
rhand -10.8493 -50.5842
rfingers 7.12502
rthumb 15.1657 -80.0085
lclavicle 2.98177e-016 7.95139e-016
lhumerus -22.5164 -20.2059 78.5043
lradius 75.8341
lwrist 28.5672
lhand -7.42102 -15.7616
lfingers 7.12502
lthumb 18.4659 13.3819
rfemur 0 0 0
rtibia 0
rfoot 0 0
rtoes 0
lfemur -6.20789 -8.27181 -11.1885
ltibia 21.982
lfoot -25.0976 16.9809
ltoes -53.7836
586
root -0.68676 18.7213 5.58296 3.20211 -2.12393 -2.88535
lowerback 3.9532 1.15688 -1.9856
upperback -1.10303 1.4117 -0.835446
thorax -3.37954 0.734446 0.156575
lowerneck -11.5438 -0.439595 -2.481
upperneck 27.9775 -0.131902 0.384983
head 10.9171 -0.275898 0.549562
rclavicle -2.40032e-014 -1.03368e-014
rhumerus -42.8447 8.98476 -83.6436
rradius 80.9432
rwrist -13.1969
rhand -10.9274 -50.4628
rfingers 7.12502
rthumb 15.0904 -79.8927
lclavicle -2.40032e-014 -1.03368e-014
lhumerus -24.4001 -19.5681 79.2344
lradius 75.3286
lwrist 28.2236
lhand -8.237 -15.3683
lfingers 7.12502
lthumb 17.6808 13.8478
rfemur 0 0 0
rtibia 0
rfoot 0 0
rtoes 0
lfemur -5.98269 -8.28065 -11.386
ltibia 21.927
lfoot -25.3139 17.1046
ltoes -53.7258
587
root -0.687289 18.7174 5.60598 3.1807 -2.38931 -2.81661
lowerback 3.72744 1.13017 -1.84842
upperback -1.22233 1.39019 -0.746699
thorax -3.3738 0.722573 0.175757
lowerneck -11.4948 -0.501974 -2.58203
upperneck 27.6482 -0.279814 0.650282
head 10.7857 -0.320384 0.642863
rclavicle 1.62258e-014 -8.74653e-015
rhumerus -43.2552 8.02233 -83.5946
rradius 78.405
rwrist -11.5589
rhand -11.0113 -50.2856
rfingers 7.12502
rthumb 15.0096 -79.7216
lclavicle 1.62258e-014 -8.74653e-015
lhumerus -26.3602 -18.9625 79.8806
lradius 74.8472
lwrist 28.0606
lhand -8.88055 -15.057
lfingers 7.12502
lthumb 17.0614 14.2138
rfemur 0 0 0
rtibia 0
rfoot 0 0
rtoes 0
lfemur -5.77136 -8.15878 -11.5095
ltibia 21.8686
lfoot -25.4367 17.2007
ltoes -53.7685
588
root -0.689076 18.7137 5.62819 3.14688 -2.62047 -2.82583
lowerback 3.5245 1.09652 -1.65994
upperback -1.32395 1.36171 -0.636862
thorax -3.3618 0.706173 0.188011
lowerneck -11.5051 -0.580933 -2.70456
upperneck 27.3605 -0.448666 0.936735
head 10.6838 -0.374838 0.74453
rclavicle -4.12478e-015 -8.74653e-015
rhumerus -43.4863 6.95026 -83.487
rradius 75.7149
rwrist -9.85566
rhand -11.0228 -49.863
rfingers 7.12502
rthumb 14.9985 -79.2998
lclavicle -4.12478e-015 -8.74653e-015
lhumerus -28.3199 -18.4024 80.5233
lradius 74.3566
lwrist 27.9832
lhand -9.23042 -14.9412
lfingers 7.12502
lthumb 16.7246 14.3584
rfemur 0 0 0
rtibia 0
rfoot 0 0
rtoes 0
lfemur -5.54301 -7.95325 -11.527
ltibia 21.7727
lfoot -25.486 17.1989
ltoes -53.8299
589
root -0.691907 18.7101 5.65104 3.08214 -2.77589 -2.80918
lowerback 3.35779 1.03572 -1.55296
upperback -1.41983 1.29255 -0.500671
thorax -3.36626 0.671543 0.274713
lowerneck -11.4909 -0.646728 -2.77651
upperneck 27.104 -0.584667 1.13363
head 10.5888 -0.420242 0.80926
rclavicle -1.58531e-014 4.77083e-015
rhumerus -43.6482 5.76179 -83.2962
rradius 72.9209
rwrist -7.94819
rhand -11.0488 -49.2966
rfingers 7.12502
rthumb 14.9735 -78.7353
lclavicle -1.58531e-014 4.77083e-015
lhumerus -30.241 -17.7481 81.2381
lradius 73.7152
lwrist 27.7715
lhand -9.51 -15.1018
lfingers 7.12502
lthumb 16.4555 14.2203
rfemur 0 0 0
rtibia 0
rfoot 0 0
rtoes 0
lfemur -5.29357 -7.91666 -11.5789
ltibia 21.6769
lfoot -25.6113 17.2465
ltoes -53.801
590
root -0.719864 18.7041 5.68875 2.91991 -2.49089 -2.74683
lowerback 3.06813 0.828512 -1.85345
upperback -1.44209 1.01527 -0.281492
thorax -3.23065 0.541767 0.690126
lowerneck -11.468 -0.692786 -2.8719
upperneck 26.8978 -0.697416 1.36997
head 10.5112 -0.453379 0.895025
rclavicle -9.44227e-016 3.97569e-015
rhumerus -43.864 4.52339 -83.0488
rradius 70.1735
rwrist -6.07655
rhand -11.0762 -48.8407
rfingers 7.12502
rthumb 14.9471 -78.2813
lclavicle -9.44227e-016 3.97569e-015
lhumerus -32.0827 -16.9202 81.9774
lradius 72.9179
lwrist 27.3754
lhand -9.79653 -15.4978
lfingers 7.12502
lthumb 16.1796 13.8469
rfemur 0 0 0
rtibia 0
rfoot 0 0
rtoes 0
lfemur -4.97276 -7.77767 -11.5151
ltibia 21.5738
lfoot -25.4626 16.847
ltoes -53.9656
591
root -0.733096 18.7005 5.71653 2.90089 -2.489 -2.72439
lowerback 2.77676 0.719682 -1.91054
upperback -1.51688 0.878308 -0.119514
thorax -3.14339 0.476446 0.899913
lowerneck -11.51 -0.761852 -2.99834
upperneck 26.7142 -0.829766 1.59581
head 10.4561 -0.49991 0.979802
rclavicle 1.17159e-014 -1.59028e-015
rhumerus -44.1025 3.25627 -82.7388
rradius 67.5122
rwrist -4.41151
rhand -11.2741 -48.5753
rfingers 7.12502
rthumb 14.7564 -78.03
lclavicle 1.17159e-014 -1.59028e-015
lhumerus -33.8248 -16.0621 82.6877
lradius 72.0901
lwrist 26.9726
lhand -10.1087 -15.7908
lfingers 7.12502
lthumb 15.879 13.5781
rfemur 0 0 0
rtibia 0
rfoot 0 0
rtoes 0
lfemur -4.78278 -7.73518 -11.4987
ltibia 21.4665
lfoot -25.5036 16.7447
ltoes -54.0193
592
root -0.735642 18.6966 5.73905 2.88536 -2.62667 -2.72765
lowerback 2.57744 0.664887 -1.78765
upperback -1.60947 0.817613 0.0204945
thorax -3.12482 0.445714 0.980028
lowerneck -11.6188 -0.850598 -3.19065
upperneck 26.6114 -0.954791 1.75841
head 10.4449 -0.557186 1.05449
rclavicle -3.29237e-016 -4.77083e-015
rhumerus -44.3325 1.9272 -82.3322
rradius 64.8813
rwrist -2.78976
rhand -11.4735 -48.0875
rfingers 7.12502
rthumb 14.5643 -77.5562
lclavicle -3.29237e-016 -4.77083e-015
lhumerus -35.5485 -15.2492 83.4098
lradius 71.2375
lwrist 26.6511
lhand -10.472 -15.8399
lfingers 7.12502
lthumb 15.5291 13.5565
rfemur 0 0 0
rtibia 0
rfoot 0 0
rtoes 0
lfemur -4.60604 -7.68845 -11.5128
ltibia 21.3847
lfoot -25.5953 16.7525
ltoes -53.9906
593
root -0.737386 18.6923 5.76074 2.83645 -2.70991 -2.73019
lowerback 2.42953 0.591798 -1.65403
upperback -1.70098 0.73157 0.166025
thorax -3.13324 0.402346 1.0603
lowerneck -11.7139 -0.92013 -3.40033
upperneck 26.5736 -1.04288 1.89994
head 10.4543 -0.602006 1.12955
rclavicle -1.15295e-014 3.57812e-015
rhumerus -44.639 0.547464 -81.8283
rradius 62.393
rwrist -1.05142
rhand -11.6069 -47.5587
rfingers 7.12502
rthumb 14.4358 -77.0366
lclavicle -1.15295e-014 3.57812e-015
lhumerus -37.179 -14.3511 84.1431
lradius 70.2506
lwrist 26.2565
lhand -10.7276 -15.7861
lfingers 7.12502
lthumb 15.2829 13.6293
rfemur 0 0 0
rtibia 0
rfoot 0 0
rtoes 0
lfemur -4.46135 -7.60973 -11.5247
ltibia 21.3942
lfoot -25.631 16.7393
ltoes -54.0373
594
root -0.733205 18.6905 5.77703 2.90762 -2.97637 -2.74867
lowerback 2.21303 0.604357 -1.42992
upperback -1.82012 0.762476 0.269324
thorax -3.13319 0.414843 1.04081
lowerneck -11.6968 -0.9999 -3.4714
upperneck 26.4281 -1.1712 2.00834
head 10.4025 -0.655112 1.16344
rclavicle 1.81935e-015 1.07344e-014
rhumerus -44.9283 -0.797958 -81.2537
rradius 59.9387
rwrist 0.727251
rhand -11.7464 -47.3279
rfingers 7.12502
rthumb 14.3014 -76.8154
lclavicle 1.81935e-015 1.07344e-014
lhumerus -38.6087 -13.3975 84.8008
lradius 69.2046
lwrist 25.4306
lhand -10.7267 -15.3218
lfingers 7.12502
lthumb 15.2838 14.0935
rfemur 0 0 0
rtibia 0
rfoot 0 0
rtoes 0
lfemur -4.43244 -7.60898 -11.5761
ltibia 21.4304
lfoot -25.8491 16.9867
ltoes -54.1065
595
root -0.7129 18.6924 5.78118 3.18497 -3.65793 -2.76055
lowerback 1.98577 0.787749 -1.00542
upperback -2.0237 1.02514 0.295669
thorax -3.2152 0.538051 0.818436
lowerneck -11.5898 -1.10876 -3.46711
upperneck 26.1782 -1.34726 2.07138
head 10.2959 -0.727924 1.16191
rclavicle 1.64386e-014 -1.98785e-015
rhumerus -45.0068 -1.9838 -80.6314
rradius 57.1241
rwrist 2.43095
rhand -11.7719 -46.7289
rfingers 7.12502
rthumb 14.2768 -76.2181
lclavicle 1.64386e-014 -1.98785e-015
lhumerus -39.8947 -12.4218 85.4012
lradius 68.1843
lwrist 24.2899
lhand -10.6039 -14.3048
lfingers 7.12502
lthumb 15.4021 15.1014
rfemur 0 0 0
rtibia 0
rfoot 0 0
rtoes 0
lfemur -4.57496 -7.8464 -11.7696
ltibia 21.4738
lfoot -26.4444 17.6964
ltoes -53.8435
596
root -0.715931 18.6897 5.7993 3.13639 -3.6946 -2.76843
lowerback 1.87881 0.754462 -0.90703
upperback -2.12007 0.988321 0.413627
thorax -3.25387 0.519511 0.887034
lowerneck -11.3932 -1.18035 -3.46142
upperneck 25.9427 -1.45834 2.07907
head 10.1753 -0.77796 1.14907
rclavicle 1.06008e-014 -7.95139e-015
rhumerus -45.275 -3.45171 -79.807
rradius 54.3486
rwrist 4.59192
rhand -11.6588 -45.2019
rfingers 7.12502
rthumb 14.3858 -74.6834
lclavicle 1.06008e-014 -7.95139e-015
lhumerus -41.1104 -11.2279 85.987
lradius 67.0198
lwrist 23.4036
lhand -10.6644 -13.5756
lfingers 7.12502
lthumb 15.3438 15.8351
rfemur 0 0 0
rtibia 0
rfoot 0 0
rtoes 0
lfemur -4.44798 -7.93265 -11.7817
ltibia 21.4943
lfoot -26.5443 17.7316
ltoes -53.7412
597
root -0.720574 18.6875 5.81949 3.08322 -3.69109 -2.80778
lowerback 1.76227 0.696745 -0.785538
upperback -2.21692 0.919664 0.533795
thorax -3.28653 0.484506 0.946534
lowerneck -11.293 -1.22059 -3.41149
upperneck 25.8677 -1.53168 2.0807
head 10.1304 -0.8074 1.13205
rclavicle -1.16724e-014 -2.78299e-015
rhumerus -45.9542 -5.46304 -78.7287
rradius 52.1093
rwrist 7.54656
rhand -11.6616 -43.645
rfingers 7.12502
rthumb 14.383 -73.1267
lclavicle -1.16724e-014 -2.78299e-015
lhumerus -42.2238 -9.84824 86.4699
lradius 65.7163
lwrist 22.7357
lhand -10.7955 -13.5258
lfingers 7.12502
lthumb 15.2175 15.8946
rfemur 0 0 0
rtibia 0
rfoot 0 0
rtoes 0
lfemur -4.31097 -7.96121 -11.7469
ltibia 21.4936
lfoot -26.5336 17.7603
ltoes -53.8338
